<svg viewBox="0 0 200 200" xmlns="http://www.w3.org/2000/svg">
  <path d="M41.1,-69C55.1,-63.2,69.4,-55.8,77.8,-44C86.2,-32.2,88.7,-16.1,87.9,-0.5C87.1,15.2,83,30.4,74.8,42.5C66.7,54.7,54.4,63.9,41.3,69.4C28.1,75,14.1,76.8,0.7,75.6C-12.7,74.4,-25.3,70.1,-39.3,65C-53.2,59.9,-68.4,54.1,-72.9,43.2C-77.3,32.2,-71,16.1,-67.8,1.8C-64.7,-12.5,-64.7,-24.9,-61.1,-37.2C-57.4,-49.6,-50,-61.7,-39.2,-69.3C-28.4,-76.9,-14.2,-80,-0.3,-79.4C13.6,-78.9,27.2,-74.8,41.1,-69Z" transform="translate(100 100)" />
</svg>